<svg xmlns="http://www.w3.org/2000/svg" xmlns:xlink="http://www.w3.org/1999/xlink" preserveAspectRatio="xMidYMid" width="740" height="144" viewBox="0 0 740 144">
  <defs>
    <style>
      .cls-1 {
        fill: #323232;
        fill-opacity: 0.8;
      }

      .cls-1, .cls-4 {
        fill-rule: evenodd;
      }

      .cls-2, .cls-3 {
        font-size: 14.6667px;
      }

      .cls-3, .cls-4 {
        fill: #fff;
      }

      .cls-3 {
        font-family: "Roboto";
      }
    </style>
  </defs>
  <path d="M740.000,143.990 L0.001,143.990 L0.001,0.002 L740.000,0.002 L740.000,143.990 Z" class="cls-1"/>
  <text transform="translate(191 89) scale(3)" class="cls-2"><tspan class="cls-3">Hello. I’m a VR snackbar.</tspan></text>
  <path d="M101.960,112.000 C79.880,112.000 62.000,94.080 62.000,72.000 C62.000,49.920 79.880,32.000 101.960,32.000 C124.080,32.000 142.000,49.920 142.000,72.000 C142.000,94.080 124.080,112.000 101.960,112.000 ZM102.000,40.000 C84.320,40.000 70.000,54.320 70.000,72.000 C70.000,89.680 84.320,104.000 102.000,104.000 C119.680,104.000 134.000,89.680 134.000,72.000 C134.000,54.320 119.680,40.000 102.000,40.000 ZM102.000,94.000 C92.680,94.000 84.760,88.160 81.560,80.000 L122.440,80.000 C119.240,88.160 111.320,94.000 102.000,94.000 ZM116.000,68.000 C112.680,68.000 110.000,65.320 110.000,62.000 C110.000,58.680 112.680,56.000 116.000,56.000 C119.320,56.000 122.000,58.680 122.000,62.000 C122.000,65.320 119.320,68.000 116.000,68.000 ZM88.000,68.000 C84.680,68.000 82.000,65.320 82.000,62.000 C82.000,58.680 84.680,56.000 88.000,56.000 C91.320,56.000 94.000,58.680 94.000,62.000 C94.000,65.320 91.320,68.000 88.000,68.000 Z" class="cls-4"/>
</svg>
